<?xml version="1.0" encoding="UTF-8"?>
<svg version="1.1" xmlns="http://www.w3.org/2000/svg" width="446" height="415">
<path d="M0 0 C147.18 0 294.36 0 446 0 C446 136.95 446 273.9 446 415 C298.82 415 151.64 415 0 415 C0 278.05 0 141.1 0 0 Z " fill="#FEFEFE" transform="translate(0,0)"/>
<path d="M0 0 C2.17918639 1.86763831 4.31238811 3.78156443 6.4362793 5.71166992 C11.48044857 10.15127169 16.81914907 13.35756913 23.8190918 13.1237793 C28.65220703 12.28944681 33.23990276 10.53700633 37.8425293 8.8815918 C44.63895579 6.56030391 52.36904888 5.05380573 59.20581055 7.87768555 C65.70891081 13.42444754 68.59558239 21.1596607 72.08862305 28.76245117 C74.70549551 34.22039444 76.59855008 38.04338305 82.33081055 40.69018555 C85.20296795 41.54579981 85.20296795 41.54579981 88.14331055 41.87768555 C89.71145508 42.10391602 89.71145508 42.10391602 91.3112793 42.3347168 C93.8598222 42.63473931 96.39858304 42.86078903 98.95581055 43.06518555 C105.52720877 43.75816936 111.32842275 46.01471821 116.39331055 50.25268555 C119.43711511 54.08198806 119.45854475 57.07992475 119.5065918 61.8269043 C119.53043945 63.04442383 119.55428711 64.26194336 119.57885742 65.51635742 C119.62149741 68.0708802 119.65292481 70.62561712 119.67260742 73.18041992 C119.77528577 83.14866654 119.77528577 83.14866654 124.33081055 91.69018555 C127.25380401 94.17124385 130.38081554 96.18518861 133.64331055 98.19018555 C148.94160693 107.72338966 148.94160693 107.72338966 150.8918457 114.69604492 C151.19719618 120.00264634 149.04432969 124.16016172 146.51831055 128.69018555 C139.92373083 140.51866547 139.92373083 140.51866547 139.33081055 153.69018555 C142.09951018 160.72135058 146.09080143 167.17048615 150.1315918 173.53393555 C152.50574194 177.80276578 152.74854093 181.84451311 152.33081055 186.69018555 C148.73461287 193.88258091 141.88903787 198.51638505 135.64331055 203.31518555 C129.23429498 208.02304425 129.23429498 208.02304425 125.33081055 214.69018555 C125.30529453 217.13480266 125.33490454 219.54939214 125.40893555 221.9909668 C125.43620321 223.45774139 125.46220483 224.92453997 125.48706055 226.39135742 C125.53021534 228.69597065 125.58070513 230.99932959 125.65307617 233.30322266 C125.7200479 235.53266378 125.75454714 237.76075336 125.78393555 239.9909668 C125.81287903 240.67242264 125.84182251 241.35387848 125.87164307 242.0559845 C125.89284692 245.88200735 125.29474489 248.17828691 122.91870117 251.08666992 C116.71061851 257.33223535 108.86803703 258.37045719 100.44702148 259.56396484 C95.88052087 260.24558684 92.44104773 261.4656044 88.33081055 263.69018555 C87.67081055 263.69018555 87.01081055 263.69018555 86.33081055 263.69018555 C86.0369043 264.28186523 85.74299805 264.87354492 85.44018555 265.4831543 C84.50959789 267.33449946 83.54871782 269.17057534 82.58081055 271.00268555 C80.8859941 274.34210165 79.52956641 277.75263502 78.2121582 281.25683594 C75.77784394 287.68050253 73.49219664 292.97761564 68.33081055 297.69018555 C61.18113359 300.05905442 54.49967481 298.59774415 47.45581055 296.69018555 C36.71694184 293.7231457 36.71694184 293.7231457 26.01049805 295.69018555 C20.49312059 299.0736644 16.23267767 303.74284697 11.73706055 308.3425293 C7.30387515 312.66776375 3.21543642 315.86360265 -3.10668945 316.37768555 C-8.75925155 315.99315751 -12.33962962 313.11748329 -16.66918945 309.69018555 C-17.86053075 308.75260301 -19.05194221 307.81510962 -20.2434082 306.87768555 C-22.13275449 305.39092712 -24.01684343 303.89984457 -25.88476562 302.38623047 C-32.55566555 297.0235697 -38.31537488 296.98936218 -46.66918945 297.69018555 C-50.48014982 298.71846258 -54.03696772 300.15775061 -57.66918945 301.69018555 C-63.98999654 303.83283202 -69.50773554 305.14445435 -75.79418945 302.25268555 C-82.43909994 296.33004794 -85.70363755 288.65619979 -89.2980957 280.6550293 C-91.86738956 275.09920582 -94.10491383 271.59224309 -99.66918945 268.69018555 C-102.30412618 267.97793013 -102.30412618 267.97793013 -105.10668945 267.62768555 C-106.67290039 267.38985352 -106.67290039 267.38985352 -108.27075195 267.1472168 C-110.61695009 266.8316936 -112.96626563 266.5388137 -115.31762695 266.2644043 C-129.01807054 264.58471239 -129.01807054 264.58471239 -134.54418945 258.69018555 C-136.78350322 254.70918329 -136.80900687 250.89607751 -136.88012695 246.38549805 C-136.90848633 245.16217773 -136.9368457 243.93885742 -136.96606445 242.6784668 C-137.0179869 240.11090179 -137.06230563 237.54317133 -137.09887695 234.9753418 C-137.12981445 233.74944336 -137.16075195 232.52354492 -137.19262695 231.26049805 C-137.22235596 229.58624756 -137.22235596 229.58624756 -137.25268555 227.87817383 C-137.85035936 223.30348176 -139.3130876 219.88206223 -142.7980957 216.8190918 C-144.00272461 216.0437207 -144.00272461 216.0437207 -145.23168945 215.25268555 C-146.55620117 214.37290039 -146.55620117 214.37290039 -147.9074707 213.4753418 C-148.81883789 212.88624023 -149.73020508 212.29713867 -150.66918945 211.69018555 C-165.68071469 201.82170117 -165.68071469 201.82170117 -167.16918945 195.6003418 C-167.66291553 186.82127492 -163.07651124 179.008354 -158.7199707 171.69799805 C-157.64891216 169.65144009 -157.1103169 167.95149908 -156.66918945 165.69018555 C-156.5093457 164.90385742 -156.34950195 164.1175293 -156.18481445 163.30737305 C-155.24851111 153.6414179 -159.9105512 147.48334199 -165.06762695 139.79174805 C-168.57465111 134.48250314 -170.50577467 129.49853674 -169.58325195 123.1159668 C-166.48788662 114.90134341 -157.11030652 109.27816655 -150.11450195 104.5769043 C-146.49292472 101.78262027 -144.12036049 99.04369866 -142.66918945 94.69018555 C-142.64367343 92.24556843 -142.67328345 89.83097895 -142.74731445 87.3894043 C-142.77458211 85.9226297 -142.80058374 84.45583112 -142.82543945 82.98901367 C-142.86859425 80.68440045 -142.91908403 78.3810415 -142.99145508 76.07714844 C-143.05842681 73.84770731 -143.09292605 71.61961773 -143.12231445 69.3894043 C-143.15125793 68.70794846 -143.18020142 68.02649261 -143.21002197 67.3243866 C-143.23117023 63.50839628 -142.63606786 61.20140414 -140.27294922 58.29370117 C-134.57818652 52.59947244 -127.219537 51.5093028 -119.54418945 50.19018555 C-108.86550618 48.39662805 -108.86550618 48.39662805 -101.04418945 41.44018555 C-98.39414256 36.71812213 -96.73011438 31.57432441 -94.90136719 26.49511719 C-92.70375545 20.50413514 -90.356029 16.06995772 -85.48168945 11.75268555 C-78.43431219 9.09034303 -71.79342496 10.78438776 -64.73168945 12.69018555 C-57.39745229 14.66396198 -50.17542359 16.42430875 -42.8371582 13.6003418 C-38.72163029 11.11884593 -35.52854948 8.03997029 -32.10668945 4.69018555 C-21.6437918 -5.49105883 -12.92813585 -10.14471973 0 0 Z " fill="#020202" transform="translate(238.669189453125,49.309814453125)"/>
<path d="M0 0 C14.99417883 11.80392802 25.52972696 29.84202144 31 48 C31.19319824 48.63824707 31.38639648 49.27649414 31.58544922 49.93408203 C37.27232136 69.61298082 37.25682522 92.22549393 32 112 C31.80664062 112.86238281 31.61328125 113.72476563 31.4140625 114.61328125 C27.4083472 130.50608674 17.17259367 145.47750627 7 158 C2.62607255 157.58197896 0.52492566 154.6848097 -2.1875 151.5625 C-2.66654785 151.0255249 -3.1455957 150.4885498 -3.63916016 149.93530273 C-4.62320806 148.83114166 -5.60367756 147.72378119 -6.58056641 146.61328125 C-8.66180839 144.24781049 -10.76846674 141.90544487 -12.875 139.5625 C-13.55304688 138.80066406 -14.23109375 138.03882813 -14.9296875 137.25390625 C-18.05632396 133.85000203 -21.3591016 130.6323909 -24.6484375 127.38671875 C-29.40860056 122.67429371 -34.03917733 117.92553512 -38.390625 112.828125 C-40.02586434 110.97062012 -41.73481793 109.23393991 -43.5 107.5 C-45.81075448 105.22987417 -47.96901642 102.90875506 -50.0625 100.4375 C-54.07291613 95.77083396 -58.4564545 91.48943829 -62.84985352 87.18725586 C-64.5861541 85.47617881 -66.29988883 83.74702427 -68 82 C-68.59538574 81.38914551 -69.19077148 80.77829102 -69.80419922 80.14892578 C-70.36252441 79.54419434 -70.92084961 78.93946289 -71.49609375 78.31640625 C-72.25490845 77.50538452 -72.25490845 77.50538452 -73.02905273 76.67797852 C-74 75 -74 75 -74.00048828 73.15722656 C-72.48958758 69.89946215 -70.03002306 67.64379552 -67.49609375 65.16796875 C-66.93938492 64.61313309 -66.38267609 64.05829742 -65.80909729 63.48664856 C-64.62809472 62.31236555 -63.44350125 61.14168458 -62.25561523 59.97436523 C-60.46157827 58.21116441 -58.67812804 56.43782329 -56.89648438 54.66210938 C-47.5937303 45.42405294 -47.5937303 45.42405294 -43.02734375 41.546875 C-36.01097531 35.55919087 -29.70642351 28.72552192 -23.24707031 22.15112305 C-21.442454 20.31649281 -19.63181915 18.4879795 -17.8203125 16.66015625 C-17.26513947 16.09152359 -16.70996643 15.52289093 -16.13796997 14.93702698 C-14.79613293 13.58637951 -13.40245259 12.28759541 -12 11 C-11.34 11 -10.68 11 -10 11 C-9.75507813 10.41734375 -9.51015625 9.8346875 -9.2578125 9.234375 C-7.79564126 6.63697764 -6.15259586 5.16024169 -3.875 3.25 C-3.15054688 2.63640625 -2.42609375 2.0228125 -1.6796875 1.390625 C-1.12539063 0.93171875 -0.57109375 0.4728125 0 0 Z " fill="#FDFDFD" transform="translate(312,126)"/>
<path d="M0 0 C-0.58285829 3.50950982 -1.78805553 5.15938337 -4.29125977 7.64770508 C-4.98610977 8.34555618 -5.68095978 9.04340729 -6.39686584 9.7624054 C-7.15406418 10.50725693 -7.91126251 11.25210846 -8.69140625 12.01953125 C-9.47007553 12.79632736 -10.24874481 13.57312347 -11.05101013 14.37345886 C-12.70279621 16.01851866 -14.35817798 17.65997472 -16.0168457 19.2980957 C-18.53518985 21.7855251 -21.04293618 24.28323586 -23.54882812 26.78320312 C-25.15823816 28.38343228 -26.76824577 29.9830607 -28.37890625 31.58203125 C-29.49344933 32.69019951 -29.49344933 32.69019951 -30.63050842 33.820755 C-34.01473023 37.15962408 -37.42858364 40.41480484 -41.02905273 43.52026367 C-45.27315256 47.18507317 -49.21618615 51.10692385 -53.15625 55.09375 C-53.9028186 55.84410522 -54.64938721 56.59446045 -55.4185791 57.36755371 C-57.78152025 59.7425992 -60.1411737 62.12086817 -62.5 64.5 C-65.61160646 67.63839217 -68.72663755 70.77332745 -71.84375 73.90625 C-72.54294556 74.6137439 -73.24214111 75.32123779 -73.96252441 76.0501709 C-77.91006303 80.01704748 -81.95556579 83.79749061 -86.20753479 87.4370575 C-89.07535133 89.93765407 -91.75849269 92.61280537 -94.4375 95.3125 C-95.22930664 96.09850586 -95.22930664 96.09850586 -96.03710938 96.90039062 C-98.86976913 99.68443136 -98.86976913 99.68443136 -101 103 C-101.99 103 -102.98 103 -104 103 C-104 69.67 -104 36.34 -104 2 C-88.9238959 -4.95820189 -88.9238959 -4.95820189 -81.8125 -6.8125 C-81.09642578 -7.01552734 -80.38035156 -7.21855469 -79.64257812 -7.42773438 C-53.37915664 -14.53927746 -24.52036467 -10.84971888 0 0 Z " fill="#FBFBFB" transform="translate(280,103)"/>
<path d="M0 0 C3.64181523 0.57332346 5.28427305 1.93129028 7.8125 4.5625 C8.43769531 5.20316406 9.06289062 5.84382812 9.70703125 6.50390625 C11.58135619 8.5442702 13.39304785 10.61502039 15.19921875 12.71484375 C19.25027962 17.36574098 23.60390406 21.67766406 28 26 C36.57021879 34.42642317 36.57021879 34.42642317 40.14453125 38.64453125 C45.91869633 45.36413472 52.39490757 51.45978762 58.6875 57.6875 C61.29850757 60.271803 63.9061033 62.85948051 66.51171875 65.44921875 C67.10345383 66.03265549 67.6951889 66.61609222 68.30485535 67.21720886 C70.78906942 69.68670924 73.04632996 72.06100051 75.17114258 74.85864258 C76.95662043 77.38690031 76.95662043 77.38690031 80.75 77.8125 C81.8225 77.874375 82.895 77.93625 84 78 C77.4254884 85.6400359 64.41452776 88.55959822 55 91 C53.88109375 91.30035156 52.7621875 91.60070312 51.609375 91.91015625 C25.261009 97.93664422 -5.04105679 94.92391128 -29 82 C-31.5625 79.75 -31.5625 79.75 -33 78 C-31.68 78 -30.36 78 -29 78 C-29.02664734 77.08371071 -29.02664734 77.08371071 -29.05383301 76.14891052 C-29.23123506 69.77372798 -29.35164545 63.39924936 -29.43945312 57.0222168 C-29.47961093 54.64464833 -29.53415065 52.26727652 -29.60351562 49.89038086 C-29.70090282 46.46679146 -29.7460045 43.04581853 -29.78125 39.62109375 C-29.82254028 38.56353378 -29.86383057 37.50597382 -29.90637207 36.41636658 C-29.9107618 29.14788659 -29.9107618 29.14788659 -27.29348755 25.84918213 C-25.27307212 24.07988667 -23.18969821 22.55097056 -21 21 C-19.76650507 19.83329189 -18.55197671 18.64582568 -17.3671875 17.4296875 C-16.78839844 16.84316406 -16.20960938 16.25664062 -15.61328125 15.65234375 C-15.03964844 15.06582031 -14.46601563 14.47929687 -13.875 13.875 C-10.57031666 10.49704208 -7.30121566 7.18122205 -3.6328125 4.1953125 C-0.96927757 2.27234804 -0.96927757 2.27234804 0 0 Z " fill="#FBFBFB" transform="translate(205,229)"/>
<path d="M0 0 C0.33 0 0.66 0 1 0 C1 42.9 1 85.8 1 130 C-6.69195905 122.30804095 -10.29008806 112.01885824 -14 102 C-14.39445312 100.95328125 -14.78890625 99.9065625 -15.1953125 98.828125 C-24.58023904 72.55033068 -21.721847 41.65678374 -9.87792969 16.62890625 C-3.20311241 3.20311241 -3.20311241 3.20311241 0 0 Z " fill="#FCFCFC" transform="translate(133,143)"/>
<path d="M0 0 C0.33 0 0.66 0 1 0 C1 42.9 1 85.8 1 130 C-1 128 -1 128 -1.24609566 125.83296776 C-1.24425207 124.92776705 -1.24240849 124.02256634 -1.24050903 123.0899353 C-1.24325836 122.05224503 -1.24600769 121.01455475 -1.24884033 119.94541931 C-1.2380545 118.23099388 -1.2380545 118.23099388 -1.22705078 116.48193359 C-1.22734283 115.28195236 -1.22763489 114.08197113 -1.22793579 112.84562683 C-1.22677912 109.55029814 -1.21673146 106.25521837 -1.20278788 102.95993376 C-1.19030657 99.51794381 -1.18911208 96.07595074 -1.18673706 92.63394165 C-1.18051462 86.11389656 -1.16409353 79.59391834 -1.14403808 73.07390273 C-1.12170279 65.65199971 -1.11069163 58.23009355 -1.10064721 50.80816531 C-1.07972792 35.53873811 -1.04453717 20.26937767 -1 5 C-1.99 5.495 -1.99 5.495 -3 6 C-1.125 1.125 -1.125 1.125 0 0 Z " fill="#CCCCCC" transform="translate(133,143)"/>
<path d="M0 0 C0 3 0 3 -1.59448242 4.95524597 C-2.71367065 6.06444145 -2.71367065 6.06444145 -3.85546875 7.19604492 C-4.69634033 8.03668991 -5.53721191 8.8773349 -6.40356445 9.74345398 C-7.32226318 10.64666885 -8.24096191 11.54988373 -9.1875 12.48046875 C-10.11973389 13.40845779 -11.05196777 14.33644684 -12.01245117 15.29255676 C-14.49160706 17.76025523 -16.97963969 20.21881294 -19.46960449 22.67559814 C-22.00857822 25.18389033 -24.53908637 27.70069072 -27.0703125 30.21679688 C-32.03860514 35.1529096 -37.01632376 40.07942094 -42 45 C-42.495 43.515 -42.495 43.515 -43 42 C-39.30458443 38.27964651 -35.60572918 34.56275774 -31.90380859 30.84887695 C-30.6480018 29.58807785 -29.39309836 28.32637824 -28.13916016 27.0637207 C-15.79445223 14.6354032 -15.79445223 14.6354032 -9.57421875 9.34936523 C-7.44318631 7.52271879 -5.4662854 5.56389764 -3.5 3.5625 C-2.49453125 2.54349609 -2.49453125 2.54349609 -1.46875 1.50390625 C-0.9840625 1.00761719 -0.499375 0.51132813 0 0 Z " fill="#D8D8D8" transform="translate(281,156)"/>
</svg>
